<svg xmlns="http://www.w3.org/2000/svg" viewBox="0 0 1200 700" role="img" aria-label="Crop disease detection illustration">
  <defs>
    <linearGradient id="bg" x1="0" y1="0" x2="1" y2="1">
      <stop offset="0%" stop-color="#ecf7ff"/>
      <stop offset="100%" stop-color="#fff4e5"/>
    </linearGradient>
  </defs>
  <rect width="1200" height="700" fill="url(#bg)"/>
  <rect x="110" y="120" width="980" height="460" rx="34" fill="#ffffff" stroke="#cfdcd2" stroke-width="5"/>
  <rect x="160" y="170" width="460" height="360" rx="24" fill="#f8fcf7" stroke="#d7e8d8" stroke-width="4"/>
  <ellipse cx="390" cy="355" rx="172" ry="210" fill="#5fa767"/>
  <path d="M390 145 C240 255 238 463 390 565 C540 463 539 256 390 145 Z" fill="#4f9757"/>
  <line x1="390" y1="170" x2="390" y2="552" stroke="#2f7a43" stroke-width="9"/>
  <circle cx="330" cy="286" r="29" fill="#c7834a" opacity="0.9"/>
  <circle cx="428" cy="338" r="34" fill="#b45b3a" opacity="0.9"/>
  <circle cx="350" cy="430" r="24" fill="#a44733" opacity="0.9"/>
  <circle cx="455" cy="460" r="26" fill="#c06f46" opacity="0.9"/>
  <rect x="686" y="202" width="352" height="96" rx="14" fill="#eef5ff"/>
  <rect x="712" y="228" width="220" height="18" rx="9" fill="#d4e5ff"/>
  <rect x="712" y="256" width="176" height="18" rx="9" fill="#d4e5ff"/>
  <rect x="686" y="322" width="352" height="98" rx="14" fill="#fff4e8"/>
  <rect x="712" y="350" width="224" height="18" rx="9" fill="#f4dcc4"/>
  <rect x="712" y="378" width="196" height="18" rx="9" fill="#f4dcc4"/>
  <rect x="686" y="444" width="352" height="78" rx="14" fill="#eef8ef"/>
  <rect x="712" y="470" width="230" height="18" rx="9" fill="#d8edda"/>
  <circle cx="1030" cy="148" r="30" fill="#ffe184"/>
</svg>
