<svg xmlns="http://www.w3.org/2000/svg" viewBox="0 0 1200 700" role="img" aria-label="Weather advisory illustration">
  <defs>
    <linearGradient id="sky" x1="0" y1="0" x2="0" y2="1">
      <stop offset="0%" stop-color="#cde9ff"/>
      <stop offset="100%" stop-color="#f7f3e8"/>
    </linearGradient>
  </defs>
  <rect width="1200" height="700" fill="url(#sky)"/>
  <circle cx="980" cy="120" r="58" fill="#ffd166"/>
  <path d="M0 470 C220 405 450 425 610 460 C770 495 975 505 1200 455 V700 H0 Z" fill="#5f9a58"/>
  <path d="M0 546 C240 510 430 540 620 572 C840 609 1030 603 1200 560 V700 H0 Z" fill="#417f45" opacity="0.42"/>
  <g transform="translate(160 160)">
    <rect x="0" y="0" width="510" height="290" rx="26" fill="#ffffff" stroke="#c9d8e6" stroke-width="5"/>
    <path d="M130 126 C130 84 164 52 205 52 C234 52 259 67 273 91 C280 86 292 83 303 83 C334 83 360 108 360 140 C360 172 334 197 303 197 H145 C108 197 78 167 78 130 C78 102 102 79 130 79 C132 79 135 79 138 79" fill="#f0f5fb"/>
    <line x1="185" y1="210" x2="160" y2="252" stroke="#6ca3d9" stroke-width="9" stroke-linecap="round"/>
    <line x1="236" y1="210" x2="211" y2="252" stroke="#6ca3d9" stroke-width="9" stroke-linecap="round"/>
    <line x1="287" y1="210" x2="262" y2="252" stroke="#6ca3d9" stroke-width="9" stroke-linecap="round"/>
    <rect x="36" y="230" width="436" height="20" rx="10" fill="#edf4df"/>
  </g>
  <g transform="translate(735 205)">
    <rect x="0" y="0" width="320" height="220" rx="24" fill="#fffdf5" stroke="#dbcfa6" stroke-width="4"/>
    <rect x="34" y="34" width="252" height="20" rx="10" fill="#f8e8c6"/>
    <rect x="34" y="68" width="210" height="20" rx="10" fill="#f8e8c6"/>
    <rect x="34" y="118" width="252" height="20" rx="10" fill="#d9edff"/>
    <rect x="34" y="152" width="180" height="20" rx="10" fill="#d9edff"/>
  </g>
</svg>
